<?xml version="1.0" encoding="UTF-8" standalone="no"?>
<!-- Created with Inkscape (http://www.inkscape.org/) -->

<svg
   xmlns:dc="http://purl.org/dc/elements/1.1/"
   xmlns:cc="http://creativecommons.org/ns#"
   xmlns:rdf="http://www.w3.org/1999/02/22-rdf-syntax-ns#"
   xmlns:svg="http://www.w3.org/2000/svg"
   xmlns="http://www.w3.org/2000/svg"
   xmlns:sodipodi="http://sodipodi.sourceforge.net/DTD/sodipodi-0.dtd"
   xmlns:inkscape="http://www.inkscape.org/namespaces/inkscape"
   id="svg4136"
   version="1.1"
   inkscape:version="0.91 r13725"
   xml:space="preserve"
   width="429.90945"
   height="60.519684"
   viewBox="0 0 429.90945 60.519684"
   sodipodi:docname="logo_qopen.svg"
   inkscape:export-filename="/home/eule/dev/other/misc/logos/g4170.png"
   inkscape:export-xdpi="599"
   inkscape:export-ydpi="599"><metadata
     id="metadata4142"><rdf:RDF><cc:Work
         rdf:about=""><dc:format>image/svg+xml</dc:format><dc:type
           rdf:resource="http://purl.org/dc/dcmitype/StillImage" /><dc:title /></cc:Work></rdf:RDF></metadata><defs
     id="defs4140"><clipPath
       clipPathUnits="userSpaceOnUse"
       id="clipPath4154"><path
         d="m 7,37.416 330,0 0,-30 -330,0 0,30 z"
         id="path4156"
         inkscape:connector-curvature="0" /></clipPath><clipPath
       clipPathUnits="userSpaceOnUse"
       id="clipPath4164"><path
         d="m 114,41.002 223,0 0,-34 -223,0 0,34 z"
         id="path4166"
         inkscape:connector-curvature="0" /></clipPath></defs><sodipodi:namedview
     pagecolor="#ffffff"
     bordercolor="#666666"
     borderopacity="1"
     objecttolerance="10"
     gridtolerance="10"
     guidetolerance="10"
     inkscape:pageopacity="0"
     inkscape:pageshadow="2"
     inkscape:window-width="1920"
     inkscape:window-height="1151"
     id="namedview4138"
     showgrid="false"
     inkscape:zoom="2.3619051"
     inkscape:cx="180.06954"
     inkscape:cy="45.274023"
     inkscape:window-x="0"
     inkscape:window-y="0"
     inkscape:window-maximized="1"
     inkscape:current-layer="g4144" /><g
     id="g4144"
     inkscape:groupmode="layer"
     inkscape:label="logo_qopen"
     transform="matrix(1.25,0,0,-1.25,0,60.519685)"><g
       id="g4146"><path
         d="m 0,48.416 343.926,0 0,-48.414 L 0,0.002 0,48.416 Z"
         style="fill:#ffffff;fill-opacity:1;fill-rule:nonzero;stroke:none"
         id="path4148"
         inkscape:connector-curvature="0" /></g><g
       id="g4150"
       style="stroke:#c8b7b7;fill:none"><g
         id="g4152"
         clip-path="url(#clipPath4154)"
         style="stroke:#c8b7b7;fill:none"><path
           d="m 7.199,16.08 0.121,-0.059 0.211,-0.59 0.297,-0.722 0.36,-0.414 0.179,-0.996 0.332,-3.082 0.059,0.285 0.39,2.48 0.207,0.223 0.122,-0.184 0.179,-0.929 0.27,-1.118 0.09,0.141 0.238,1.035 0.449,1.395 0.602,1.422 0.148,-0.047 0.18,-0.434 0.269,-0.559 0.153,0.196 0.449,0.883 0.148,-0.18 0.418,-0.785 0.063,0.054 0.687,0.899 0.032,-0.031 0.328,-0.34 0.3,0.258 0.028,-0.028 0.242,-0.203 0.148,0.395 0.301,0.804 0.09,-0.101 0.18,-0.754 0.359,-1.477 0.121,0.02 0.328,0.535 0.328,0.977 0.36,0.886 0.152,0.004 0.18,-0.215 0.207,-0.793 0.242,-2.109 0.297,-3.055 0.031,0.075 0.211,1.535 0.477,3.152 1.019,4.059 0.18,0.187 0.152,-0.144 0.328,-0.762 0.539,-1.285 0.18,0.129 0.328,0.277 0.121,-0.16 0.18,-0.817 0.449,-3.695 0.09,0.406 0.539,3.547 0.211,0.203 0.18,-0.144 0.238,-0.625 0.301,-0.766 0.148,0.207 0.422,0.668 0.18,-0.144 0.539,-0.582 0.18,-0.02 0.148,0.234 0.359,0.657 0.18,-0.071 0.75,-0.691 0.27,0.148 0.386,0.211 0.18,-0.41 0.242,-0.418 0.149,0.153 0.511,0.523 0.239,0.168 0.179,0.441 0.391,1.118 0.148,-0.079 0.301,-0.316 0.028,0.023 0.152,0.383 0.359,1.059 0.09,-0.125 0.18,-0.887 0.238,-2.594 0.211,-2.918 0.027,0.196 0.571,6.125 0.211,0.34 0.148,-0.079 0.27,-0.484 0.3,-0.887 0.301,-1.996 0.238,-0.929 0.149,0.023 0.152,-0.031 0.149,-0.289 0.211,-1.246 0.269,-1.973 0.027,0.062 0.301,1.118 0.059,-0.035 0.18,-0.122 0.031,0.039 0.148,0.629 0.512,2.286 0.18,0.109 0.269,-0.262 0.567,-0.621 0.211,0.274 0.359,1.027 0.301,0.629 0.179,0 0.149,-0.25 0.242,-1 0.297,-0.891 0.152,-0.023 0.18,0.492 0.359,0.824 0.297,0.145 0.449,-0.024 0.18,0.352 0.359,0.789 0.121,-0.102 0.211,-0.597 0.239,-0.45 0.179,0.227 0.391,0.59 0.238,-0.242 0.692,-0.848 0.148,0.18 0.391,0.535 0.148,-0.113 0.449,-0.922 0.09,0.101 0.149,0.547 0.422,1.617 0.179,0.121 0.149,-0.14 0.238,-0.656 0.48,-1.622 0.122,0.106 0.269,0.242 0.238,-0.074 0.153,-0.262 0.597,-1.586 0.09,0.074 0.149,0.344 0.629,1.918 0.421,0.067 0.418,-0.032 0.329,-0.004 0.269,0.016 0.152,-0.23 0.27,-0.614 0.027,0.043 0.153,0.653 0.39,1.816 0.149,0.016 0.179,-0.258 0.688,-1.168 0.391,-0.617 0.777,-2.325 0.242,-1.003 0.027,0.031 0.539,1.351 0.27,-0.031 0.269,0.246 0.153,0.535 0.687,3.493 0.153,0.035 0.179,-0.289 0.688,-1.536 0.148,-0.187 0.391,-0.906 0.031,0.011 0.149,0.204 0.359,0.523 0.27,-0.059 0.21,-0.304 0.149,-0.055 0.121,0.219 0.207,0.332 0.031,-0.012 0.149,-0.375 0.211,-0.351 0.507,0.468 0.211,0.606 0.36,1.027 0.121,0 0.121,-0.234 0.207,-1.137 0.449,-3.078 0.063,0.094 0.508,1.617 0.058,-0.035 0.719,-0.629 0.211,0.437 0.75,2.121 0.027,-0.015 0.242,-0.301 0.45,-0.645 0.238,0.047 0.242,0.188 0.719,0.679 0.207,0.082 0.152,-0.371 0.449,-1.418 0.118,0.133 0.808,1.711 0.18,-0.047 0.152,-0.254 0.328,-0.5 0.211,-0.328 0.239,-0.301 0.148,0.286 0.363,0.738 0.149,-0.012 0.269,-0.144 0.391,0.297 0.18,-0.27 0.507,-1.25 0.059,0.055 0.242,0.613 0.598,1.863 0.148,-0.058 0.27,-0.586 0.422,-1.012 0.117,0.059 0.242,0.613 0.449,1.176 0.149,0.007 0.179,-0.343 0.243,-1.219 0.386,-1.906 0.09,0.082 0.152,0.699 0.567,3.121 0.242,0.297 0.18,-0.152 0.238,-0.688 0.328,-0.801 0.301,-0.629 0.211,-1.144 0.387,-2.793 0.031,0.027 0.121,0.496 0.418,2.2 0.629,0.894 0.719,1.859 0.179,-0.109 0.242,-0.535 0.719,-1.926 0.238,0.008 0.149,0.25 0.601,1.234 0.207,-0.05 0.27,-0.102 0.18,0.289 0.511,0.957 0.149,-0.156 0.242,-0.219 0.148,0.152 0.45,0.532 0.179,-0.16 0.239,-0.547 0.48,-1.754 0.059,0.094 0.332,1.132 0.269,0.496 0.18,0.039 0.18,-0.16 0.597,-0.797 0.332,-0.3 0.508,-0.723 0.059,0.063 0.449,0.734 0.09,-0.102 0.332,-0.343 0.238,-0.051 0.211,-0.102 0.149,0.281 0.328,0.645 0.121,-0.117 0.148,-0.485 0.27,-1.437 0.062,0.105 0.598,2.407 0.39,0.152 0.391,0.668 0.149,-0.156 0.21,-0.52 0.508,-2.121 0.418,-1.453 0.211,-0.316 0.031,0.023 0.118,0.434 0.629,3.23 0.179,0.051 0.301,-0.281 0.359,-0.356 0.211,0.168 0.297,0.305 0.18,-0.199 0.359,-0.508 0.184,-0.117 0.297,-0.25 0.179,0.269 0.539,1.086 0.122,-0.016 0.121,-0.32 0.238,-1.582 0.18,-0.844 0.031,0.047 0.148,0.86 0.27,1.296 0.121,0.071 0.027,-0.024 0.153,-0.261 0.476,-1.2 0.121,0.231 0.75,2.008 0.059,-0.051 0.148,-0.375 0.274,-1.664 0.269,-1.309 0.18,-0.086 0.148,0.211 0.211,0.699 0.36,1.122 0.117,-0.063 0.512,-0.531 0.117,0.066 0.18,0.617 0.3,0.887 0.211,0.043 0.207,-0.187 0.301,-0.704 0.301,-0.796 0.058,0.058 0.45,0.887 0.089,-0.059 0.333,-0.32 0.238,-0.703 0.269,-0.981 0.032,0.059 0.117,0.984 0.511,5.133 0.149,0.399 0.031,-0.012 0.09,-0.254 0.117,-1.207 0.121,-1.711 0.032,0.613 0.417,11.492 0.391,4.559 0.207,0.875 0.09,-0.191 0.18,-1.313 0.242,-3.879 0.328,-5.547 0.031,0.114 0.207,1.582 0.063,-0.145 0.117,-1.535 0.121,-2.297 0.031,0.492 0.36,7.59 0.359,2.68 0.211,0.422 0.117,-0.133 0.242,-0.719 0.239,-0.605 0.09,0.191 0.539,2.16 0.058,-0.066 0.422,-1.102 0.297,-2.019 0.269,-2.844 0.063,0.285 0.476,4.727 0.09,0.051 0.032,-0.036 0.148,-0.488 0.301,-2.023 0.269,-1.399 0.36,-0.269 0.152,-0.008 0.117,0.301 0.571,2.179 0.031,-0.011 0.117,-0.317 0.629,-2.355 0.18,-0.012 0.242,0.281 0.328,0.512 0.148,-0.164 0.211,-0.699 0.36,-1.078 0.3,-0.258 0.301,-0.246 0.09,-0.043 0.027,0.043 0.122,0.699 1.046,9.805 0.211,0.359 0.121,-0.125 0.18,-0.66 0.27,-1.145 0.027,0.016 0.121,0.449 0.391,1.652 0.148,0.02 0.211,-0.414 0.836,-1.914 0.27,-0.289 0.242,-0.817 0.328,-1.968 0.512,-3.551 0.027,0.019 0.152,0.395 0.477,1.551 0.121,-0.043 0.238,-0.528 0.18,-0.199 0.121,0.203 0.957,2.446 0.512,0.695 0.148,-0.184 0.301,-0.39 0.18,0.191 0.3,0.262 0.18,-0.149 0.449,-0.879 0.328,-1 0.149,-0.21 0.09,0.226 0.269,1.746 0.332,1.504 0.149,0.055 0.148,-0.317 0.242,-1.148 0.387,-1.848 0.121,0.168 0.27,0.36 0.148,-0.293 0.512,-1.356 0.269,-0.215 0.18,-0.64 0.27,-1.035 0.031,0.023 0.148,0.504 0.301,0.879 0.09,-0.121 0.238,-0.981 0.121,-0.215 0.028,0.055 0.152,0.813 0.359,1.769 0.149,0.051 0.328,-0.168 0.211,0.391 0.418,0.746 0.152,-0.02 0.149,-0.285 0.211,-0.941 0.539,-3.606 0.089,0.141 0.391,1.457 0.508,1.531 0.121,-0.082 0.207,-0.594 0.242,-0.539 0.117,0.149 0.422,1.148 0.598,1.797 0.148,-0.016 0.243,-0.379 0.628,-1.14 0.297,-0.012 0.153,-0.336 0.211,-1.152 0.269,-3.051 0.117,-1.176 0.032,0.039 0.148,1.778 0.301,2.746 0.238,0.66 0.152,0.015 0.18,-0.3 0.508,-1.055 0.93,0.355 0.476,0.211 0.332,-0.355 0.36,-0.262 0.121,0.196 0.507,1.519 0.09,-0.098 0.18,-0.679 0.359,-2.664 0.418,-2.606 0.121,-0.144 0.032,0.019 0.179,0.375 0.27,1.141 0.476,2.168 0.122,0.043 0.031,-0.031 0.148,-0.454 0.391,-2.058 0.09,0.195 0.746,3.008 0.242,0.086 0.48,-0.219 0.18,-0.461 0.36,-1.949 0.328,-1.145 0.148,0 0.18,0.395 1.078,3.113 0.211,0.145 0.18,-0.192 0.269,-0.722 0.27,-0.547 0.179,0.14 0.18,0.043 0.18,-0.246 0.601,-1.25 0.059,0.063 0.48,0.918 0.09,-0.086 0.238,-0.613 0.27,-0.473 0.238,-0.008 0.153,0.258 1.015,2.566 0.27,0.16 0.152,-0.179 0.238,-0.746 0.36,-1.086 0.332,-0.207 0.179,-0.797 0.329,-2.41 0.058,0.183 0.602,3.289 0.179,-0.039 0.27,-0.359 0.238,-0.668 0.508,-1.688 0.121,0.219 0.301,1.317 0.359,1.242 0.239,0.183 0.148,-0.132 0.18,-0.508 0.242,-1.574 0.391,-4.461 0.058,0.496 0.418,4.285 0.332,0.984 1.137,1.926 0.179,-0.008 0.211,-0.289 0.36,-1 0.449,-1.859 0.207,-0.715 0.031,0.016 0.121,0.371 0.297,0.886 0.121,-0.066 0.18,-0.457 0.332,-1.106 0.027,0.043 0.153,0.719 0.297,1.188 0.09,-0.047 0.152,-0.535 0.207,-1.797 0.211,-3.813 0.09,-1.629 0.058,0.614 0.332,4.761 0.239,0.828 0.628,0.692 0.122,-0.219 0.179,-0.945 0.449,-3.824 0.09,0.171 0.207,0.45 0.032,-0.008 0.242,-0.277 0.027,0.078 0.152,1.125 0.36,2.527 0.359,0.996 0.238,0.207 0.149,-0.164 0.269,-0.738 0.391,-0.953 0.301,-0.16 0.238,-0.688 0.211,-0.352 0.149,0.215 0.238,0.227 0.211,-0.207 0.179,-0.059 0.45,0.281 0.179,-0.425 0.332,-1.524 0.27,-1.664 0.059,0.094 0.449,2.359 0.09,-0.152 0.238,-1.066 0.211,-0.657 0.031,0.016 0.18,0.434 0.539,1.902 0.269,0.644 0.117,-0.035 0.18,-0.39 0.57,-1.59 0.149,0.086 0.269,0.199 0.18,-0.191 0.723,-1.036 0.148,0.282 0.418,0.996 0.121,-0.168 0.66,-1.379 0.09,0.223 0.508,2.312 0.031,-0.027 0.118,-0.375 0.179,-1.481 0.18,-1.519 0.031,0.07 0.149,1.586 0.3,2.32 0.239,0.465 0.601,0.641 0.239,-0.266 0.242,-0.777 0.269,-0.668 0.387,-0.153 0.242,-0.609 0.27,-0.535 0.148,0.269 0.328,0.563 0.121,-0.102 0.18,-0.554 0.27,-1.785 0.121,-0.461 0.027,0.074 0.152,1.336 0.418,3.5 0.301,0.98 0.18,0.051 0.179,-0.344 0.629,-1.957 0.36,-1.84 0.031,0.028 0.148,0.531 0.629,2.676 0.211,0.125 0.149,-0.207 0.359,-0.875 0.059,0.054 0.211,0.676 0.269,0.59 0.121,-0.098 0.18,-0.617 0.207,-1.578 0.269,-4.172 0.09,-1.109 0.063,0.281 0.359,3.094 0.059,0.047 0.031,-0.028 0.121,-0.437 0.27,-2.012 0.09,0.395 0.476,3.812 0.211,0.317 0.18,-0.067 0.48,-0.449 0.059,0.078 0.687,1.09 0.153,-0.082 0.148,-0.399 0.238,-1.511 0.243,-1.571 0.027,0.016 0.121,0.617 0.391,2.266 0.238,0.312 0.242,-0.043 0.207,-0.293 0.211,-0.746 0.449,-2.562 0.09,0.172 0.328,0.797 0.481,0.363 0.449,0.59 0.508,0.168 0.3,0.984 0.391,1.023 0.149,0.02 0.179,-0.273 0.27,-0.95 0.66,-3.281 0.059,0.063 0.152,0.695 0.449,2.344 0.207,0.187 0.301,0.11 0.18,-0.016 0.179,-0.352 0.418,-0.972 0.391,-0.078 0.359,-0.559 0.032,0.031 0.207,0.504 0.332,0.621 0.179,-0.047 0.239,-0.437 0.332,-1.223 0.449,-1.644 0.09,0.086 0.179,0.703 0.36,1.359 0.117,-0.004 0.18,-0.39 0.3,-0.536 0.149,0.223 0.301,0.383 0.121,-0.156 0.179,-0.746 0.36,-2.325 0.058,0.11 0.778,3.617 0.359,1.808 0.121,0 0.152,-0.394 0.657,-2.859 0.211,-1.313 0.031,0.023 0.117,0.817 0.422,3.348 0.18,0.324 0.117,-0.133 0.18,-0.621 0.359,-2.258 0.211,-0.953 0.031,0.012 0.117,0.472 0.36,1.543 0.121,0.028 0.031,-0.032 0.18,-0.468 0.449,-1.93 0.09,0.211 0.867,3.191 0.121,-0.054 0.18,-0.489 0.449,-1.922 0.09,0.149 0.48,1.082 0.27,0.117 0.148,-0.219 0.328,-1.136 0.243,-1.598 0.386,-3.555 0.063,0.067 0.957,2.828 0.66,3.222 0.301,0.54 0.117,-0.086 0.18,-0.563 0.39,-1.484 0.031,0.027 0.18,0.496 0.656,2.184 0.153,-0.094 0.539,-0.895 0.238,-1.175 0.449,-2.368 0.09,0.219 0.66,2.789 0.211,-0.238 0.508,-0.668 0.27,-0.57 0.328,-0.871 0.031,0.039 0.391,0.945 0.089,-0.109 0.329,-0.688 0.031,0.027 0.867,1.071 0.121,-0.125 0.18,-0.707 0.297,-2.453 0.093,0.578 0.36,3.074 0.09,0.105 0.027,-0.015 0.152,-0.391 0.207,-1.375 0.332,-3.015 0.059,0.105 0.957,4.199 0.062,-0.035 0.387,-0.586 0.063,0.055 0.179,0.035 0.18,-0.285 0.27,-0.406 0.027,0.019 0.121,0.285 0.449,1.262 0.18,0.051 0.152,-0.227 0.36,-0.984 0.058,0.058 0.328,0.633 0.032,-0.023 0.179,-0.438 0.18,-0.449 0.031,0.012 0.117,0.406 0.36,1.332 0.121,-0.058 0.211,-0.598 0.297,-1.703 0.211,-2.84 0.09,-1.051 0.058,0.32 0.449,4.676 0.243,0.602 0.117,-0.086 0.211,-0.625 0.211,-0.399 0.117,0.215 0.332,0.696 0.148,-0.133 0.989,-1.621 0.421,-0.161 0.297,0.399 0.032,-0.02 0.179,-0.312 0.211,-0.262 0.27,-0.094 0.297,-0.371 0.211,-0.07 0.3,-0.34 0.18,0.449 0.566,2.278 0.184,-0.133 0.18,-0.504 0.328,-1.449 0.058,0.125 0.36,1.332 0.031,-0.016 0.121,-0.273 0.27,-1.164 0.058,0.086 0.18,1.203 0.301,1.562 0.148,0.098 0.121,-0.254 0.328,-1.281 0.059,0.078 0.18,0.933 0.332,1.477 0.207,0.184 0.121,-0.215 0.211,-1.051 0.359,-1.785 0.117,0.105 0.633,0.844 0.027,-0.027 0.18,-0.383 0.27,-0.449 0.152,0.168 0.629,1.035 0.449,-0.059 0.18,0.024 0.148,-0.399 0.36,-1.699 0.058,0.066 0.539,1.489 0.211,0.328 0.121,-0.102 0.207,-0.699 0.332,-1.059 0.121,0.293 0.508,1.809 0.032,-0.016 0.117,-0.254 0.211,-1.093 0.211,-0.989 0.027,0.04 0.152,0.855 0.387,2.242 0.18,0.215 0.121,-0.176 0.211,-0.914 0.269,-1.113 0.09,0.152 1.078,3.422 0.117,-0.164 0.18,-0.727 0.453,-1.996 0.117,0.161 0.36,0.746 0.031,-0.024 0.148,-0.371 0.391,-1.433 0.059,0.109 0.242,1.098 0.297,0.937 0.359,0.359 0.211,-0.058 0.18,0.031 0.328,0.488 0.301,0.219 0.211,-0.129 0.597,-0.836 0.422,-0.504 0.18,0.196 0.207,0.168 0.121,-0.145 0.18,-0.695 0.418,-2.375 0.062,0.043 0.328,0.289 0.121,0.082 0.149,0.765 0.449,2.508 0.211,0.196 0.18,-0.149 0.359,-0.637 0.449,-1.089 0.18,-0.387 0.09,0.254 0.629,2.637 0.121,-0.114 0.476,-0.863 0.032,0.023 0.328,0.235 0.152,-0.293 0.418,-1.668 0.09,0.137 0.328,0.812 0.121,-0.203 0.418,-1.285 0.062,0.09 0.18,0.925 0.449,2.207 0.18,0.153 0.117,-0.235 0.27,-1.308 0.363,-1.688 0.027,0.02 0.122,0.441 0.359,1.371 0.09,-0.086 0.148,-0.617 0.422,-3.109 0.09,0.211 0.328,1.07 0.598,-0.129 0.211,-0.371 0.031,0.039 0.117,0.488 0.481,2.426 0.121,-0.035 0.148,-0.418 0.481,-2.226 0.089,0.238 0.539,2.179 0.122,-0.039 0.269,-0.261 0.027,0.023 0.481,0.602 0.058,-0.055 0.301,-0.512 0.629,-1.472 0.301,-0.891 0.059,0.09 0.21,1.125 0.297,1.172 0.153,0.101 0.027,-0.019 0.152,-0.289 0.36,-1.578 0.148,-0.286 0.031,0.032 0.297,0.664 0.063,-0.094 0.148,-0.746 0.27,-1.684 0.031,0.047 0.148,0.953 0.243,1.25 0.058,-0.039 0.121,-0.609 0.149,-1.113 0.058,0.179 0.629,5.34 0.121,-0.117 0.239,-0.785 0.839,-2.746 0.059,0.132 0.152,1.375 0.36,2.95 0.179,0.277 0.149,-0.199 0.301,-0.988 0.359,-1.957 0.328,-1.52 0.121,0.168 0.27,0.844 0.57,2.074 0.149,-0.106 0.3,-0.234 0.149,-0.09 0.148,-0.41 0.211,-1.476 0.301,-2.614 0.027,0.059 0.45,2.051 0.062,-0.063 0.27,-0.656 0.058,0.137 0.27,1.707 0.238,0.777 0.094,-0.078 0.207,-0.684 0.57,-2.496 0.391,-3.238 0.058,0.191 0.84,4.809 0.117,0.019 0.153,-0.406 0.207,-1.316 0.269,-2.293 0.063,0.293 0.539,5.156 0.179,0.121 0.149,-0.219 0.269,-0.945 0.301,-0.895 0.121,0.071 0.36,0.402 0.027,-0.031 0.121,-0.344 0.18,-1.453 0.238,-3.254 0.063,0.637 0.296,3.644 0.122,0.211 0.031,-0.031 0.148,-0.484 0.18,-0.422 0.121,0.293 0.297,0.84 0.09,-0.121 0.152,-0.704 0.328,-2.718 0.059,0.285 0.359,2.066 0.09,-0.035 0.242,-0.684 0.18,-0.242 0.117,0.25 0.602,1.586 0.148,-0.14 0.27,-0.602 0.089,0.16 0.481,1.762 0.031,-0.02 0.117,-0.261 0.27,-1.453 0.391,-2.27 0.031,0.043 0.117,0.809 0.332,2.269 0.117,0.109 0.031,-0.023 0.18,-0.344 0.301,-0.488 0.18,0.102 0.386,0.339 0.602,0.028 0.75,0.816 0.207,-0.16 0.18,-0.488 0.211,-1.567 0.148,-1.226 0.062,0.129 0.477,3.183 0.031,-0.015 0.149,-0.282 0.179,-0.273 0.032,0.023 0.148,0.371 0.391,1.082 0.148,0.016 0.152,-0.254 0.208,-0.887 0.332,-1.859 0.058,0.098 0.211,1.441 0.27,1.176 0.089,-0.051 0.18,-0.656 0.598,-2.578 0.031,0.019 0.121,0.387 0.598,2.285 0.211,0.184 0.148,-0.106 0.211,-0.586 0.387,-2.117 0.09,0.129 0.332,0.711 0.148,-0.254 0.391,-1.344 0.359,-1.804 0.059,0.218 0.449,2.903 0.062,-0.09 0.239,-0.563 0.058,0.114 0.481,1.804 0.449,1.684 0.09,-0.059 0.148,-0.492 0.512,-2.371 0.059,0.031 0.121,0.27 0.898,3.148 0.18,-0.007 0.566,-0.473 0.242,-0.602 0.301,-0.863 0.028,0.016 0.152,0.398 0.328,0.832 0.121,-0.058 0.207,-0.516 0.391,-1.625 0.238,-0.766 0.031,0.012 0.121,0.402 0.508,2.2 0.18,0.062 0.148,-0.289 0.391,-1.199 0.059,0.051 0.3,0.421 0.032,-0.019 0.148,-0.387 0.422,-1.23 0.148,-0.129 0.418,-0.805 0.063,0.043 0.297,0.164 0.152,0.223 0.238,1.203 0.45,2.148 0.148,0.09 0.152,-0.293 0.207,-1.086 0.243,-1.332 0.027,0.016 0.121,0.613 0.48,3.074 0.18,0.196 0.149,-0.141 0.418,-0.48 0.453,0.101 0.207,-0.453 1.32,-4.328 0.059,0.062 0.179,0.43 0.391,1.262 0.117,-0.211 0.27,-0.836 0.031,0.043 0.148,0.816 0.36,1.813 0.152,0.101 0.207,-0.289 0.391,-0.57 0.511,-0.687 0.387,-1.118 0.242,-0.961 0.059,0.094 0.148,1.336 0.422,3.508 0.239,0.594 0.148,-0.063 0.211,-0.504 0.269,-0.601 0.032,0.015 0.148,0.321 0.27,0.398 0.148,-0.211 0.301,-1.058 0.359,-1.098 0.121,0.027 0.27,0.254 0.117,-0.285 0.18,-1.223 0.273,-2.101 0.027,0.043 0.27,1.129 0.871,2.824 0.238,-0.129 0.211,-0.574 0.27,-0.727 0.09,0.129 0.476,1.231 0.032,-0.016 0.148,-0.258 0.301,-0.527 0.211,0.082 0.449,0.289 0.387,0.484 0.211,-0.187 0.601,-0.699 0.149,0.132 0.179,0.645 0.301,0.945 0.117,-0.09 0.18,-0.648 0.332,-1.293 0.09,0.109 0.476,1.028 0.032,-0.016 0.3,-0.402 0.508,-1.098 0.27,-0.504 0.031,0.016 0.359,0.422 0.059,-0.082 0.152,-0.7 0.207,-2.312 0.153,-1.375 0.027,0.035 0.211,1.59 0.719,5.457 0.179,0.164 0.09,-0.125 0.18,-0.832 0.238,-2.645 0.18,-1.808 0.031,0.008 0.121,0.636 0.27,1.149 0.09,-0.133 0.117,-0.731 0.242,-3.007 0.059,0.488 0.328,3.777 0.152,0.235 0.207,-0.211 0.063,0.125 0.148,0.879 0.449,2.714 0.153,0.11 0.148,-0.285 0.598,-2.282 0.269,-1.113 0.063,0.055 0.148,0.695 0.328,1.363 0.153,-0.007 0.418,-0.493 0.031,0.028 0.297,0.164 0.152,-0.27 0.207,-0.949 0.301,-1.285 0.09,0.102 0.238,0.882 0.66,2.442 0.09,-0.043 0.152,-0.438 0.207,-1.597 0.243,-2.325 0.058,0.137 0.18,2.039"
           style="fill:none;stroke:#c8b7b7;stroke-width:1;stroke-linecap:square;stroke-linejoin:round;stroke-miterlimit:10;stroke-dasharray:none;stroke-opacity:1"
           id="path4158"
           inkscape:connector-curvature="0" /></g></g><g
       id="g4160"
       style="stroke:#6c5353;fill:none"><g
         id="g4162"
         clip-path="url(#clipPath4164)"
         style="stroke:#6c5353;fill:none"><path
           d="m 114.895,-76.08 0.031,108.379 0.09,3.125 0.238,2.468 0.359,1.543 0.481,1.125 0.301,0.438 0.027,-0.047 0.539,-1.059 0.391,-1.246 0.269,-1.57 0.18,-2.445 0.179,-2.442 0.961,-0.488 1.887,-0.688 3.266,-0.933 5.031,-1.188 7.012,-1.418 9.195,-1.625 11.773,-1.843 14.887,-2.102 18.754,-2.406 23.606,-2.801 29.75,-3.297 37.535,-3.926 47.453,-4.73 7.668,-0.746"
           style="fill:none;stroke:#6c5353;stroke-width:1;stroke-linecap:square;stroke-linejoin:round;stroke-miterlimit:10;stroke-dasharray:none;stroke-opacity:1"
           id="path4168"
           inkscape:connector-curvature="0" /></g></g><g
       id="g4170"
       style="fill:#241c1c;stroke:none"
       transform="translate(0,3.2)"><text
         transform="matrix(1,0,0,-1,23.675781,13.603248)"
         style="font-variant:normal;font-weight:normal;font-size:12px;font-family:'DejaVu Serif';-inkscape-font-specification:DejaVuSerif;writing-mode:lr-tb;fill:#241c1c;fill-opacity:1;fill-rule:nonzero;stroke:none"
         id="text4172"><tspan
           x="0 9.8280001 17.052 24.732 31.823999"
           y="0"
           sodipodi:role="line"
           id="tspan4174">Qopen</tspan></text>
</g></g></svg>